<?xml version="1.0" encoding="UTF-8" standalone="no"?>
<!-- Created with Inkscape (http://www.inkscape.org/) -->

<svg
   xmlns:dc="http://purl.org/dc/elements/1.1/"
   xmlns:cc="http://creativecommons.org/ns#"
   xmlns:rdf="http://www.w3.org/1999/02/22-rdf-syntax-ns#"
   xmlns:svg="http://www.w3.org/2000/svg"
   xmlns="http://www.w3.org/2000/svg"
   xmlns:sodipodi="http://sodipodi.sourceforge.net/DTD/sodipodi-0.dtd"
   xmlns:inkscape="http://www.inkscape.org/namespaces/inkscape"
   id="svg2"
   version="1.1"
   inkscape:version="0.47 r22583"
   width="300"
   height="300"
   sodipodi:docname="Wheelchair tennis pictogram (Paralympics).png">
  <metadata
     id="metadata8">
    <rdf:RDF>
      <cc:Work
         rdf:about="">
        <dc:format>image/svg+xml</dc:format>
        <dc:type
           rdf:resource="http://purl.org/dc/dcmitype/StillImage" />
        <dc:title></dc:title>
      </cc:Work>
    </rdf:RDF>
  </metadata>
  <defs
     id="defs6">
    <inkscape:perspective
       sodipodi:type="inkscape:persp3d"
       inkscape:vp_x="0 : 0.5 : 1"
       inkscape:vp_y="0 : 1000 : 0"
       inkscape:vp_z="1 : 0.5 : 1"
       inkscape:persp3d-origin="0.5 : 0.33333333 : 1"
       id="perspective10" />
  </defs>
  <sodipodi:namedview
     pagecolor="#ffffff"
     bordercolor="#666666"
     borderopacity="1"
     objecttolerance="10"
     gridtolerance="10"
     guidetolerance="10"
     inkscape:pageopacity="0"
     inkscape:pageshadow="2"
     inkscape:window-width="1440"
     inkscape:window-height="850"
     id="namedview4"
     showgrid="false"
     inkscape:zoom="1.9466667"
     inkscape:cx="150"
     inkscape:cy="150"
     inkscape:window-x="-8"
     inkscape:window-y="-8"
     inkscape:window-maximized="1"
     inkscape:current-layer="svg2" />
  <path
     style="fill:#000000"
     d="m 235.90894,256.16434 c -16.91105,-5.59427 -31.14111,-24.53728 -34.9643,-46.54437 -1.22809,-7.06913 -0.84689,-25.54054 0.59904,-29.02714 0.73739,-1.77809 0.41564,-1.86844 -4.75403,-1.33488 C 189.8052,179.97881 187,181.66682 187,185.1488 c 0,9.64592 6.28696,44.12107 10.59545,58.1012 1.15144,3.73617 -1.43336,1.40911 -7.21995,-6.5 -8.32759,-11.38217 -14.49988,-22.4331 -21.07157,-37.72674 l -2.37335,-5.52326 0.63512,12.46242 c 0.34932,6.85433 1.43146,17.65433 2.40476,24 0.9733,6.34567 1.59847,11.72973 1.38926,11.96458 -0.55209,0.61975 -2.68983,-2.45794 -7.41671,-10.67782 -12.53483,-21.79764 -22.73189,-57.11719 -19.05009,-65.98379 2.41079,-5.80573 13.7497,-11.03287 32.40589,-14.93883 10.95669,-2.29396 13.62916,-2.49306 26.20119,-1.95205 9.35129,0.40242 16.15833,0.19322 20.5,-0.63002 11.11005,-2.10661 21.83641,-1.63641 27.9393,1.22474 5.14451,2.41184 5.29937,2.42485 6.66312,0.55982 2.38391,-3.2602 5.38346,-12.37701 6.36804,-19.355 2.26848,-16.0774 -2.7848,-21.27635 -24.43009,-25.1343 -18.47406,-3.29272 -23.67546,-6.485883 -23.92958,-14.690481 -0.0869,-2.806921 0.48348,-4.026628 2.64998,-5.666354 7.96771,-6.030394 33.92427,-0.514273 48.24937,10.253647 15.48953,11.643208 14.70769,35.125198 -1.72331,51.758178 l -6.11952,6.19475 6.17902,6.60539 c 11.50991,12.30413 17.51339,28.34605 17.59106,47.00512 0.0253,6.07286 -0.56292,13.46357 -1.31318,16.5 -6.24229,25.26372 -26.39078,39.72238 -46.21527,33.16434 z m 21.06393,-7.1505 c 12.81905,-6.53979 20.31688,-22.00582 20.36805,-42.01384 0.10635,-41.59122 -34.63953,-69.48093 -58.17635,-46.69679 -13.55795,13.1244 -17.19504,40.52554 -8.21584,61.89667 9.84073,23.42165 29.83739,35.07183 46.02414,26.81396 z M 82.5,111.70333 c -7.7,-4.53135 -15.695746,-9.40295 -17.768325,-10.82578 l -3.768326,-2.586976 -4.651152,2.354716 c -17.886578,9.05533 -42.449945,-9.56515 -37.3928,-28.345955 0.682768,-2.535605 2.442308,-5.287743 4.58142,-7.165909 14.97558,-13.148733 43.089801,2.388337 41.239772,22.790788 l -0.505856,5.57866 8.909604,5.307985 c 10.425774,6.211261 18.609756,8.334411 32.355663,8.393951 12.43524,0.0539 21.85998,-2.33987 36.5,-9.270403 6.875,-3.2546 14.5453,-6.194798 17.04511,-6.533772 3.96723,-0.537956 4.9526,-0.273442 7.75,2.080418 2.6988,2.270885 3.20489,3.381189 3.20489,7.031117 0,5.58402 -3.1807,9.48192 -10.60221,12.99286 -12.22251,5.78217 -35.04665,8.18194 -51.14878,5.37788 -4.72482,-0.82279 -6.70913,-0.82279 -7.53192,0 -1.984243,1.98424 -3.985485,1.19553 -18.21709,-7.17958 z M 56.14865,93.159661 C 65.713632,82.454588 47.485784,62.054245 32.712229,66.929958 19.806451,71.189249 22.501137,86.931533 37.5,94.899987 c 3.088629,1.640898 5.343964,2.048278 9.89865,1.787986 5.161821,-0.294989 6.254827,-0.735728 8.75,-3.528312 z M 20.656302,116.86747 c -1.014033,-0.58945 -2.491196,-2.6214 -3.282583,-4.51546 -1.808371,-4.32804 -0.367345,-7.88141 4.297795,-10.59777 2.884304,-1.67943 3.488291,-1.71431 6.669509,-0.38511 C 32.357337,103.04725 34,105.54669 34,109.97971 c 0,6.17516 -7.716961,10.1585 -13.343698,6.88776 z m 6.986958,-6.3802 c 0.757572,-1.97421 -1.387651,-4.52259 -3.216373,-3.82084 -1.468409,0.56348 -1.944006,3.48312 -0.76022,4.6669 1.179394,1.1794 3.37893,0.71142 3.976593,-0.84606 z M 169.38297,82.660065 c -11.61962,-5.551688 -15.93186,-20.187844 -9.02359,-30.626944 9.53434,-14.407357 30.23455,-12.898922 37.38716,2.72442 2.02599,4.425362 2.39197,6.425132 1.91417,10.459417 -1.77502,14.987233 -17.02716,23.774045 -30.27774,17.443107 z"
     id="path2818" />
</svg>
