<svg width="10" height="10" viewBox="0 0 10 10" fill="none" xmlns="http://www.w3.org/2000/svg">
<g id="&#240;&#159;&#166;&#134; icon &#34;map&#34;">
<path id="Vector" d="M0 0.0124809V9.99719H9.98471V7.02674C10.0051 6.93635 10.0051 6.84255 9.98471 6.75216V0H0V0.0124809ZM1.24809 1.26057H8.73662V6.25293H6.86449C6.82712 6.24955 6.78953 6.24955 6.75216 6.25293C6.58665 6.26782 6.43384 6.34785 6.32734 6.47542C6.22085 6.60298 6.16938 6.76763 6.18428 6.93313C6.19918 7.09864 6.27921 7.25145 6.40677 7.35795C6.53434 7.46445 6.69898 7.51591 6.86449 7.50101H8.73662V8.7491H1.24809V1.26057ZM4.36831 2.50866C3.3324 2.50866 2.49618 3.34488 2.49618 4.38079C2.49618 5.62888 4.36831 7.50101 4.36831 7.50101C4.36831 7.50101 6.24044 5.62888 6.24044 4.38079C6.24044 3.34488 5.40422 2.50866 4.36831 2.50866ZM4.36831 3.75675C4.71778 3.75675 4.99236 4.03133 4.99236 4.38079C4.99236 4.73026 4.71778 5.00484 4.36831 5.00484C4.01885 5.00484 3.74427 4.73026 3.74427 4.38079C3.74427 4.03133 4.01885 3.75675 4.36831 3.75675Z" fill="black"/>
</g>
</svg>
